<svg version="1.2" xmlns="http://www.w3.org/2000/svg" viewBox="0 0 50 45" width="50" height="45">
	<title>gol-svg</title>
	<defs>
		<clipPath clipPathUnits="userSpaceOnUse" id="cp1">
			<path d="m0 0.68h50v44.24h-50z"/>
		</clipPath>
	</defs>
	<style>
		.s0 { fill: #faf5f5 } 
		.s1 { fill: #fefefe } 
		.s2 { fill: #fbfbfb } 
		.s3 { fill: #fffafa } 
	</style>
	<g id="Clip-Path" clip-path="url(#cp1)">
		<g id="Layer">
			<path id="Layer" fill-rule="evenodd" class="s0" d="m44.4 36.2l-6.2 3.3-0.8-1.1 6.3-3.3c0.3-0.2 0.8-0.5 0.6-0.9-0.1-0.4-0.6-0.8-1.2-1.1-0.6-0.2-1.3-0.2-1.9 0l-8.3 3.3c0 0.6-0.3 1.1-0.8 1.5-0.5 0.5-1.2 0.8-1.9 0.8h-8.1v-1.3h8.1q0.5 0 0.9-0.3c0.2-0.3 0.4-0.7 0.4-1.1-0.1-0.8-0.9-1.2-1.7-1.2h-6.1l-0.3-0.2c-0.6-0.4-1.3-1-2.9-1h-3.2l-4.3 1.4v6.9h1.5 0.1l11.1 1.7h1.9l6.1-3.2 0.7 1.1-6.4 3.4h-2.4-0.1l-11.1-1.7h-1.4v1.3h-8.8v-11.9h6.6c0.8 0 1.6 0.5 2 1.1l4.3-1.4h3.4c2 0 3.1 0.7 3.7 1.2h5.6c1.3 0 2.4 0.7 2.9 1.6l7.9-3.2c1-0.4 2.1-0.4 3.2 0.1 0.9 0.3 1.6 1 1.9 1.9 0.3 0.8-0.2 1.7-1.3 2.3zm-32.9-1.6c0-0.4-0.3-0.7-0.7-0.7h-5.1v9.3h5.8z"/>
			<path id="Layer" class="s1" d="m34.9 39.7l1.3-0.6 0.7 1.1-1.2 0.6z"/>
			<path id="Layer" fill-rule="evenodd" class="s2" d="m8.9 14.9c0-2.2 0.6-4.5 1.8-6.5 1.1-2 2.8-3.7 4.8-5l0.9 1.1q-1.5 0.9-2.7 2.2c1.2 0.4 2.6 0.7 4.2 1q0.4-1.5 1.1-2.7 0.9-1.5 1.9-2.5-1.8 0.4-3.3 1.3l-0.8-1.1c2.5-1.3 5.3-2 8.2-2 8.9 0 16.1 6.4 16.1 14.2 0 7.9-7.2 14.3-16.1 14.3-8.9 0-16.1-6.4-16.1-14.3zm12 12.5q-1-1-1.9-2.6-0.7-1.2-1.1-2.6c-1.6 0.3-3 0.6-4.2 1 1.9 2 4.3 3.4 7.2 4.2zm-10.5-11.8c0.1 2.4 1 4.6 2.4 6.5 1.3-0.5 2.9-0.9 4.7-1.1-0.5-1.7-0.7-3.5-0.8-5.4zm13.9 6.1c-1.7 0-3.4 0.1-4.9 0.3 1.1 3.2 2.9 5.4 4.9 5.8zm6.4 0.3c-1.5-0.1-3.2-0.3-4.9-0.3v6.2c2-0.5 3.8-2.7 4.9-5.9zm0.4-1.2c0.5-1.6 0.7-3.3 0.8-5.2h-6.1v4.8q2.8 0.1 5.3 0.4zm1.5 0.2c1.7 0.3 3.3 0.7 4.6 1.1 1.5-1.8 2.3-4.1 2.5-6.5h-6.4c0 1.9-0.3 3.7-0.7 5.4zm7.1-6.7c-0.2-2.4-1-4.6-2.5-6.5-1.3 0.5-2.9 0.9-4.6 1.2 0.4 1.6 0.7 3.4 0.7 5.3zm-8.5-5.1q-2.6 0.3-5.4 0.3v4.8h6.1c0-1.8-0.3-3.6-0.7-5.1zm-0.4-1.3c-1.1-3.1-2.9-5.4-5-5.8v6.1c1.7 0 3.4-0.1 5-0.3zm-6.4 1.6q-2.8 0-5.4-0.3c-0.4 1.5-0.7 3.3-0.7 5.1h6.1zm-6.1 6.1c0 1.9 0.3 3.6 0.7 5.2q2.6-0.3 5.4-0.4v-4.8zm18.1 7.6c-1.2-0.4-2.6-0.7-4.2-0.9q-0.5 1.4-1.1 2.6-0.9 1.5-1.9 2.5c2.8-0.7 5.3-2.2 7.2-4.2zm-7.2-20.7q1 1 1.9 2.6 0.6 1.2 1.1 2.6c1.6-0.2 3-0.6 4.2-1-1.9-1.9-4.4-3.4-7.2-4.2zm-9.8 5.4c1.6 0.2 3.2 0.3 4.9 0.3v-6.1c-2 0.4-3.8 2.7-4.9 5.8zm-9 6.4h6.4c0.1-1.9 0.3-3.7 0.7-5.3-1.7-0.3-3.3-0.7-4.6-1.2q-0.5 0.6-0.8 1.2-1.5 2.5-1.7 5.3z"/>
			<path id="Layer" class="s3" d="m35.4 9.8h1.5v1.3h-1.5z"/>
		</g>
	</g>
</svg>