<svg version="1.2" xmlns="http://www.w3.org/2000/svg" viewBox="0 0 20 10" width="20" height="10"><style>.a{fill:#0b0b0b}</style><path class="a" d="m19.7 0.3q-0.1-0.2-0.3-0.2-0.2-0.1-0.4-0.1-0.2 0-0.4 0.1-0.2 0-0.3 0.2l-6.3 6.3-4.3-4.3q-0.1-0.2-0.3-0.2-0.2-0.1-0.4-0.1-0.2 0-0.4 0.1-0.2 0-0.3 0.2l-6 6q-0.2 0.1-0.2 0.3-0.1 0.2-0.1 0.4 0 0.2 0.1 0.4 0 0.2 0.2 0.3 0.1 0.2 0.3 0.2 0.2 0.1 0.4 0.1 0.2 0 0.4-0.1 0.2 0 0.3-0.2l5.3-5.3 4.3 4.3q0.1 0.2 0.3 0.2 0.2 0.1 0.4 0.1 0.2 0 0.4-0.1 0.2 0 0.3-0.2l7-7q0.2-0.1 0.2-0.3 0.1-0.2 0.1-0.4 0-0.2-0.1-0.4 0-0.2-0.2-0.3z"/></svg>