<svg version="1.2" xmlns="http://www.w3.org/2000/svg" viewBox="0 0 50 45" width="50" height="45">
	<title>link_gen-svg</title>
	<style>
		.s0 { fill: #ffffff } 
		.s1 { fill: #f3f3f3 } 
		.s2 { fill: #f6f6f6 } 
	</style>
	<path id="Layer" class="s0" d="m45.5 0.6h-3.5c-0.6 0-1 0.5-1 1.1 0.1 0.5 0.5 0.9 1.1 0.9 0 0 3.4 0 3.4 0 1.4 0 2.5 1.1 2.5 2.5v14c0 1.4-1.1 2.5-2.5 2.5h-9.6q-0.4 0-0.7 0.3l-2.3 2.2v-1.5c0-0.5-0.4-1-1-1h-2.3c-1.4 0-2.6-1.1-2.6-2.5v-14c0-1.4 1.2-2.5 2.6-2.5h3.6c0.7 0.1 1.2-0.4 1.2-1 0-0.6-0.5-1-1-1h-3.8c-2.5 0-4.5 2-4.5 4.5v14c0 2.5 2 4.5 4.5 4.5h1.4v2.9c0 0.4 0.2 0.7 0.6 0.9 0.3 0.1 0.7 0.1 1-0.2l3.7-3.6h9.2c2.5 0 4.5-2 4.5-4.5v-14c0-2.5-2-4.5-4.5-4.5z"/>
	<path id="Layer" fill-rule="evenodd" class="s0" d="m0 43.9v-7.4c0-5 4.1-9.1 9.1-9.1h0.7c-1.4-1.3-2.3-3.2-2.3-5.3v-1.9c-0.4-0.1-0.7-0.5-0.7-0.9v-0.2c0-4.4 3.6-8 8-8 2.1 0 4.1 0.8 5.6 2.4 1.5 1.5 2.3 3.5 2.3 5.6v0.5c0 0.4-0.3 0.8-0.7 0.9v1.6c0 2.1-0.9 4-2.3 5.3h0.7c5 0 9.1 4.1 9.1 9.1v7.4c0 0.5-0.4 0.9-1 0.9h-27.5c-0.6 0-1-0.4-1-0.9zm13-14.6l0.7 2.4h2.1l0.7-2.4zm3.8 13.6l-1-9.2h-1.8l-1.1 9.2zm3.7-13.6h-1.8l-1 3.3 1.1 10.3h2.9v-6c0-0.5 0.5-0.9 1-0.9 0.6 0 1 0.4 1 0.9v6h3.9v-6.4c0-3.9-3.2-7.2-7.1-7.2zm-11.6-11h4c0.8 0 1.4-0.3 2.1-0.8 0.9-0.6 2-0.7 2.8-0.2 0.8 0.5 1.4 1 2.2 1.3h0.8c-0.1-1.4-0.7-2.7-1.7-3.8-1.1-1.1-2.7-1.7-4.3-1.7-3 0-5.5 2.2-5.9 5.2zm5.9 9.1c3 0 5.3-2.4 5.3-5.3v-1.5h-0.2c-1.2 0-2.2-1.1-3.1-1.6-0.2-0.1-0.4-0.1-0.6 0.1-1 0.7-2.1 1.1-3.3 1.1h-3.3v1.9c0 2.9 2.3 5.3 5.2 5.3zm-12.8 15.5h4v-6c0-0.5 0.4-0.9 0.9-0.9 0.6 0 1 0.4 1 0.9v6h3l1.2-10-1.1-3.6h-1.8c-4 0-7.2 3.3-7.2 7.2z"/>
	<path id="Layer" fill-rule="evenodd" class="s1" d="m37.4 18.7v-4h-0.2l-5.9 2c-0.3 0.1-0.7 0-0.9-0.2-0.3-0.1-0.4-0.4-0.4-0.7v-9.6c0-0.3 0.1-0.6 0.4-0.8 0.2-0.2 0.6-0.2 0.9-0.1l5.9 2h4.7c2 0 3.7 1.6 3.7 3.7q0 0 0 0 0 0 0 0 0 0 0 0 0 0 0 0 0 0 0 0c0 1.5-0.9 2.8-2.1 3.4l-1.1 4.5c-0.1 0.4-0.5 0.8-1 0.8h-3c-0.5 0-1-0.5-1-1zm4-4h-2v3h1.3zm0.5-5.5h-3.8v3.5h3.8c1 0 1.7-0.8 1.7-1.7 0-1-0.7-1.8-1.7-1.8zm-10 5.2l4.2-1.4v-4.1l-4.2-1.3z"/>
	<path id="Layer" class="s2" d="m37.5 0.6c-0.4 0.1-0.7 0.5-0.7 0.9-0.1 0.4 0.2 0.8 0.6 1 0.8 0.3 1.6-0.6 1.2-1.3-0.2-0.4-0.6-0.7-1.1-0.6z"/>
</svg>