<svg version="1.2" xmlns="http://www.w3.org/2000/svg" viewBox="0 0 50 45" width="50" height="45">
	<title>link_click-svg</title>
	<style>
		.s0 { fill: #f9f4f3 } 
		.s1 { fill: #f7f2f2 } 
		.s2 { fill: #fefbfb } 
		.s3 { fill: #f9f8f8 } 
		.s4 { fill: #fbfbfb } 
		.s5 { fill: #fdfcfb } 
	</style>
	<path id="Layer" class="s0" d="m8.2 9.6c0.6 0.5 1.5 0.5 2.1 0 0.6-0.5 0.6-1.3 0-1.8l-3.2-2.8c-0.6-0.5-1.5-0.5-2.1 0-0.5 0.5-0.5 1.3 0 1.8z"/>
	<path id="Layer" class="s1" d="m7.2 14.3c0.2-0.7-0.2-1.4-1-1.6l-4.4-1c-0.7-0.2-1.5 0.2-1.8 0.9-0.2 0.7 0.3 1.4 1.1 1.6l4.3 1c0.8 0.2 1.6-0.2 1.8-0.9z"/>
	<path id="Layer" class="s2" d="m13.8 6c0.2 0.7 1 1.1 1.8 0.9 0.8-0.2 1.2-0.9 1-1.6l-1.1-3.8c-0.2-0.7-1-1.1-1.8-0.9-0.8 0.1-1.3 0.9-1.1 1.5z"/>
	<path id="Layer" class="s3" d="m30.1 18c1.5-1.4 2.3-3.1 2.3-5 0-1.9-0.8-3.7-2.3-5-3.1-2.7-8.2-2.7-11.2 0l-2.9 2.6c-0.6 0.5-0.6 1.3 0 1.8 0.5 0.5 1.5 0.5 2 0l2.9-2.5c2-1.8 5.2-1.8 7.1 0 1 0.8 1.5 1.9 1.5 3.1 0 1.2-0.5 2.3-1.5 3.1l-2.9 2.6c-0.6 0.5-0.6 1.3 0 1.8 0.3 0.3 0.7 0.4 1 0.4 0.4 0 0.8-0.1 1.1-0.4z"/>
	<path id="Layer" class="s3" d="m20.5 22.7l-2.9 2.6c-1.9 1.7-5.1 1.7-7.1 0-0.9-0.8-1.4-1.9-1.4-3.1 0-1.2 0.5-2.3 1.4-3.2l2.9-2.5c0.6-0.5 0.6-1.4 0-1.9-0.5-0.5-1.5-0.5-2 0l-2.9 2.6c-1.5 1.3-2.3 3.1-2.3 5 0 1.8 0.8 3.6 2.3 4.9 1.5 1.4 3.5 2.1 5.6 2.1 2.1 0 4.1-0.7 5.6-2.1l2.9-2.5c0.6-0.5 0.6-1.4 0-1.9-0.6-0.5-1.5-0.5-2.1 0z"/>
	<path id="Layer" class="s4" d="m24.4 13.1c-0.6-0.5-1.5-0.5-2.1 0l-8.1 7.1c-0.6 0.5-0.6 1.4 0 1.9 0.3 0.2 0.7 0.4 1 0.4 0.4 0 0.8-0.2 1.1-0.4l8.1-7.2c0.5-0.5 0.5-1.3 0-1.8z"/>
	<path id="Layer" fill-rule="evenodd" class="s5" d="m49.3 31l-4.9 2.6 2.7 3.1c1.4 1.6 1.2 3.8-0.4 5.2-1.5 1.4-4 1.5-5.8 0.3l-3.5-2.4-2.9 4.3c-0.7 1-2.4 0.8-2.7-0.3l-5.2-18.2c-0.3-0.9 0.7-1.8 1.7-1.6l20.6 4.6c0.6 0.2 1 0.6 1.1 1.1 0.1 0.5-0.2 1-0.7 1.3zm-4.5-0.6l-14.8-3.3 3.8 13 2-2.9c0.4-0.7 1.5-0.8 2.1-0.4l4.8 3.4c0.6 0.4 1.4 0.3 2-0.1 0.5-0.5 0.6-1.3 0.1-1.8l-3.7-4.2c-0.6-0.6-0.4-1.6 0.3-1.9z"/>
</svg>