<svg version="1.2" xmlns="http://www.w3.org/2000/svg" viewBox="0 0 24 25" width="24" height="25"><defs><clipPath clipPathUnits="userSpaceOnUse" id="cp1"><path d="m0 0.05h24v24h-24z"/></clipPath></defs><style></style><g clip-path="url(#cp1)"><path  d="m22.9 0h-8.7c-0.6 0-1.1 0.5-1.1 1.1 0 0.6 0.5 1.1 1.1 1.1h6.1l-11.3 11.3c-0.4 0.4-0.4 1.1 0 1.5 0.3 0.2 0.5 0.3 0.8 0.3 0.3 0 0.6-0.1 0.8-0.3l11.2-11.2v6.1c0 0.6 0.5 1.1 1.1 1.1 0.6 0 1.1-0.5 1.1-1.1v-8.8c0-0.6-0.5-1.1-1.1-1.1z"/><path  d="m18.5 11c-0.6 0-1 0.4-1 1v9.9h-15.3v-15.3h9.8c0.6 0 1.1-0.5 1.1-1.1 0-0.6-0.5-1.1-1.1-1.1h-10.9c-0.6 0-1.1 0.5-1.1 1.1v17.5c0 0.6 0.5 1 1.1 1h17.4c0.6 0 1.1-0.4 1.1-1v-11c0-0.6-0.5-1-1.1-1z"/></g></svg>