<svg width="30" height="30" viewBox="0 0 30 30" fill="none" xmlns="http://www.w3.org/2000/svg">
<g clip-path="url(#clip0_3221_6038)">
<path d="M29.9722 1.56902C29.9804 1.54659 29.9867 1.52352 29.9911 1.50003C29.9914 1.49885 29.9917 1.49773 29.9919 1.49656C29.9961 1.4733 29.9984 1.44964 29.9988 1.42592C29.9988 1.42498 29.999 1.42403 29.999 1.42309C29.9993 1.39978 29.9975 1.37635 29.9941 1.35304C29.9939 1.3518 29.9938 1.35057 29.9936 1.34939C29.9901 1.32732 29.9847 1.30536 29.9778 1.28364C29.977 1.28128 29.9764 1.27887 29.9756 1.27651C29.9708 1.2625 29.9656 1.24855 29.9593 1.23484C29.9565 1.22854 29.9532 1.22259 29.95 1.21653C29.9485 1.21347 29.947 1.21035 29.9453 1.20735C29.9347 1.1878 29.9228 1.16949 29.9097 1.15213C29.9079 1.14971 29.9062 1.1473 29.9043 1.14495C29.8901 1.12682 29.8745 1.11004 29.8578 1.09456C29.8567 1.09356 29.856 1.09244 29.8549 1.09144C29.8541 1.09073 29.8531 1.0902 29.8524 1.08949C29.8353 1.07413 29.8169 1.06018 29.7978 1.04776C29.7955 1.04629 29.7933 1.04476 29.791 1.04334C29.7721 1.03157 29.7523 1.02133 29.7319 1.01256C29.7293 1.01144 29.7268 1.01026 29.7242 1.0092C29.7037 1.00084 29.6826 0.99413 29.661 0.988891C29.6587 0.988302 29.6564 0.987655 29.6541 0.987184C29.6325 0.982298 29.6104 0.979178 29.5881 0.977647C29.5857 0.977471 29.5834 0.977294 29.5811 0.977176C29.5593 0.975999 29.5374 0.976529 29.5154 0.978648C29.5123 0.978942 29.5093 0.979237 29.5061 0.979649C29.4888 0.981709 29.4715 0.984417 29.4542 0.988538L18.0763 3.72466C17.8393 3.78164 17.6933 4.02006 17.7503 4.25711C17.8073 4.49423 18.0459 4.64022 18.2827 4.58317L27.4406 2.38091L26.8795 2.77979L13.1801 12.5187L8.3678 6.96745L16.4781 5.01708C16.7152 4.9601 16.8612 4.72169 16.8042 4.48463C16.7471 4.24752 16.5087 4.10164 16.2717 4.15857L7.45549 6.27865C7.30561 6.31468 7.18535 6.42629 7.13826 6.5731C7.09122 6.71992 7.12413 6.88062 7.22508 6.99712L11.969 12.4695L11.6674 16.5282C11.6567 16.672 11.717 16.812 11.8288 16.9032C11.9085 16.9682 12.0073 17.0025 12.1077 17.0025C12.1481 17.0025 12.1888 16.9969 12.2286 16.9856L15.002 16.196L18.3538 20.4047C18.438 20.5103 18.5653 20.5711 18.6991 20.5711C18.7099 20.5711 18.7208 20.5707 18.7316 20.57C18.877 20.5592 19.0078 20.4774 19.0811 20.3512L21.0922 16.8855C21.2146 16.6746 21.1428 16.4045 20.9319 16.2821C20.7211 16.1597 20.4508 16.2315 20.3285 16.4424L18.6418 19.3489L13.7451 13.2005L28.1536 2.95751L21.2712 14.818C21.1488 15.0289 21.2205 15.299 21.4314 15.4214C21.6424 15.5439 21.9126 15.472 22.0349 15.2611L29.9394 1.63931C29.9395 1.63907 29.9396 1.63884 29.9397 1.6386C29.952 1.61723 29.9625 1.59492 29.9711 1.57197C29.9714 1.57096 29.9719 1.57002 29.9722 1.56902ZM12.5949 15.9632L12.7845 13.4117L14.406 15.4477L12.5949 15.9632Z" fill="white"/>
<path d="M9.86263 14.0033C9.71881 13.8064 9.44249 13.7635 9.2457 13.9073C9.14404 13.9816 9.04367 14.0591 8.94737 14.1379C8.75852 14.2921 8.7305 14.5702 8.88473 14.7591C8.97203 14.8659 9.09895 14.9213 9.22692 14.9213C9.32511 14.9213 9.42395 14.8886 9.50595 14.8217C9.59001 14.753 9.67773 14.6853 9.76667 14.6203C9.96352 14.4765 10.0065 14.2003 9.86263 14.0033Z" fill="white"/>
<path d="M7.38926 17.1039C7.44471 17.127 7.5021 17.1379 7.55862 17.1379C7.73162 17.1379 7.89586 17.0355 7.96644 16.8658C8.04733 16.6713 8.14087 16.4806 8.24453 16.2991C8.36538 16.0873 8.29168 15.8176 8.07988 15.6968C7.86796 15.5759 7.59841 15.6496 7.47761 15.8614C7.35594 16.0747 7.24609 16.2986 7.1512 16.5267C7.05748 16.7518 7.16409 17.0102 7.38926 17.1039Z" fill="white"/>
<path d="M7.12218 19.8804C7.36583 19.8705 7.5552 19.6648 7.54525 19.4212C7.54125 19.3229 7.53919 19.2242 7.53919 19.128C7.53919 19.0101 7.54225 18.8917 7.54826 18.7763C7.56085 18.5328 7.37366 18.3252 7.13013 18.3126C6.88712 18.3 6.67903 18.4872 6.66643 18.7307C6.65972 18.8612 6.65625 18.9948 6.65625 19.1279C6.65625 19.2362 6.65855 19.3471 6.66308 19.4575C6.67279 19.695 6.86835 19.8809 7.10387 19.8809C7.10988 19.8808 7.11606 19.8807 7.12218 19.8804Z" fill="white"/>
<path d="M1.14922 25.094C0.928709 24.9901 0.665575 25.0845 0.561617 25.305C0.457128 25.5267 0.365826 25.7599 0.2903 25.998C0.216599 26.2305 0.345281 26.4786 0.577687 26.5523C0.622073 26.5664 0.667047 26.5731 0.711256 26.5731C0.898511 26.5731 1.07234 26.4529 1.13198 26.2649C1.19567 26.064 1.27243 25.8678 1.36026 25.6815C1.46428 25.461 1.36974 25.1979 1.14922 25.094Z" fill="white"/>
<path d="M2.53292 23.0433C2.32618 23.1826 2.12868 23.3334 1.94584 23.4913C1.76135 23.6507 1.74099 23.9295 1.90034 24.114C1.98764 24.2151 2.11079 24.2669 2.23464 24.2669C2.33683 24.2669 2.43962 24.2316 2.52303 24.1596C2.67938 24.0245 2.8488 23.8952 3.02646 23.7754C3.22867 23.6392 3.28206 23.3647 3.14572 23.1626C3.0095 22.9603 2.73507 22.9069 2.53292 23.0433Z" fill="white"/>
<path d="M5.25783 21.9094C5.02107 21.9629 4.7869 22.0251 4.56179 22.0944C4.32874 22.1661 4.19794 22.4131 4.26964 22.6462C4.32803 22.836 4.50269 22.958 4.69148 22.958C4.73445 22.958 4.77819 22.9517 4.82145 22.9384C5.02519 22.8758 5.23746 22.8194 5.45245 22.7707C5.69027 22.717 5.83955 22.4806 5.78581 22.2428C5.73206 22.0049 5.49589 21.8556 5.25783 21.9094Z" fill="white"/>
<path d="M10.7662 22.9804C10.8108 22.9946 10.856 23.0013 10.9004 23.0013C11.0874 23.0013 11.2611 22.8815 11.3209 22.6938C11.395 22.4615 11.2667 22.2131 11.0344 22.139C10.8117 22.0681 10.5782 22.0035 10.3404 21.9471C10.103 21.8908 9.86517 22.0375 9.8089 22.2747C9.75262 22.512 9.89931 22.75 10.1365 22.8062C10.3528 22.8575 10.5646 22.9161 10.7662 22.9804Z" fill="white"/>
<path d="M12.9043 24.2655C12.9911 24.3805 13.1233 24.4411 13.2571 24.4411C13.3497 24.4411 13.443 24.4121 13.5227 24.352C13.7173 24.2051 13.756 23.9282 13.6091 23.7336C13.4599 23.5359 13.2739 23.3458 13.0562 23.1685C12.8671 23.0146 12.5891 23.0429 12.4351 23.2321C12.2811 23.4211 12.3096 23.6992 12.4987 23.8532C12.6613 23.9857 12.7978 24.1244 12.9043 24.2655Z" fill="white"/>
<path d="M13.5718 25.5924C13.358 25.4748 13.0896 25.5528 12.9721 25.7663C12.8756 25.9416 12.7663 26.0844 12.6473 26.1907C12.4655 26.3532 12.4498 26.6323 12.6123 26.8141C12.6995 26.9117 12.8203 26.9614 12.9416 26.9614C13.0464 26.9614 13.1514 26.9244 13.2357 26.8491C13.4293 26.6761 13.6009 26.455 13.7456 26.192C13.8632 25.9785 13.7853 25.71 13.5718 25.5924Z" fill="white"/>
<path d="M11.1768 26.1881C11.0102 26.0988 10.8379 25.9856 10.6647 25.8516C10.4719 25.7024 10.1946 25.7379 10.0454 25.9307C9.89624 26.1235 9.93167 26.4009 10.1245 26.55C10.3362 26.7138 10.5498 26.8538 10.7593 26.9662C10.8257 27.0018 10.8971 27.0187 10.9677 27.0187C11.1251 27.0187 11.2774 26.9343 11.3571 26.7859C11.4723 26.5711 11.3916 26.3034 11.1768 26.1881Z" fill="white"/>
<path d="M8.58388 22.1129C8.5933 21.8692 8.4034 21.6641 8.15969 21.6547C8.09093 21.652 8.02177 21.65 7.95271 21.6485C7.9264 21.5657 7.90132 21.4829 7.87754 21.4004C7.81008 21.1662 7.56549 21.0309 7.33108 21.0984C7.09679 21.1659 6.96158 21.4106 7.0291 21.6449C7.04829 21.7115 7.06824 21.7783 7.08896 21.8451C7.04058 21.9176 7.01308 22.0052 7.01509 22.0991C7.01974 22.3202 7.18615 22.4999 7.39896 22.5276C7.47507 22.5852 7.56884 22.6174 7.66586 22.6174C7.71583 22.6174 7.7667 22.6088 7.81644 22.5908C7.85735 22.5759 7.89479 22.5556 7.92811 22.5311C7.99398 22.5324 8.05997 22.5344 8.12561 22.537C8.36731 22.5449 8.57446 22.3565 8.58388 22.1129Z" fill="white"/>
<path d="M8.95516 23.8522C8.82813 23.6441 8.55652 23.5783 8.34824 23.7053C8.14015 23.8324 8.0744 24.1041 8.20143 24.3123C8.32705 24.518 8.4598 24.7196 8.59613 24.9115C8.6822 25.0327 8.8183 25.0974 8.95646 25.0974C9.04487 25.0974 9.13417 25.0709 9.2117 25.0158C9.41049 24.8747 9.45717 24.5991 9.31601 24.4002C9.19157 24.225 9.07013 24.0405 8.95516 23.8522Z" fill="white"/>
<path d="M0.882751 28.2153C0.875158 27.9716 0.671361 27.7789 0.427653 27.7879C0.183945 27.7955 -0.00743093 27.9993 0.000221738 28.243C0.00404807 28.3656 0.0107589 28.4908 0.0200598 28.615C0.0375432 28.8469 0.231097 29.0235 0.459853 29.0235C0.470979 29.0235 0.482163 29.023 0.493466 29.0222C0.736585 29.0039 0.918895 28.7919 0.900588 28.5488C0.892229 28.4373 0.886224 28.3251 0.882751 28.2153Z" fill="white"/>
</g>
<defs>
<clipPath id="clip0_3221_6038">
<rect width="30" height="30" fill="white"/>
</clipPath>
</defs>
</svg>
