<svg version="1.2" xmlns="http://www.w3.org/2000/svg" viewBox="0 0 26 25" width="26" height="25"><style></style><path  d="m1.5 1.7h3.7v-1.4h-5.2v4.9h1.5z"/><path fill-rule="evenodd" d="m14.1 21.4v-6.3h-2.3v3.1h-2.4v1.8h2.4v1.4h-7.4v-1.4h3.4v-3.3h2.5v-5.2h-6.7v-7.7h8.2v2.6h1.8v1.5h-1.8v5.8h3.1v-2.2h1.6v2.2h4.3v-2h-1.9v-1.5h1.9v-1.9h-2.7v-1.4h4.3v14.5zm6.6-6.3h-5.1v4.9h5.1zm-15.7-5.1h5.2v-4.9h-5.2z"/><path  d="m18.2 3.8h4.2v1.4h-4.2z"/><path  d="m6.9 6.8h1.6v1.4h-1.6z"/><path  d="m17.3 16.8h1.6v1.5h-1.6z"/><path  d="m14.6 3.8h1.6v1.4h-1.6z"/><path  d="m14.9 8.7h1.6v1.4h-1.6z"/><path  d="m4.4 16.7h1.5v1.5h-1.5z"/><path  d="m4 13.7h4.5v1.4h-4.5z"/><path  d="m1.5 19.9h-1.5v4.9h5.2v-1.5h-3.7z"/><path  d="m20.8 0.3v1.4h3.7v3.5h1.5v-4.9z"/><path  d="m24.5 23.3h-3.7v1.5h5.2v-4.9h-1.5z"/></svg>