<svg version="1.2" xmlns="http://www.w3.org/2000/svg" viewBox="0 0 24 24" width="24" height="24"><style>.a{fill:#090808}.b{fill:#090909}.c{fill:#070707}</style><path class="a" d="m12.9 16.6l-3.7 3.7q0 0 0 0 0 0 0 0c-1.5 1.5-3.9 1.5-5.5 0-0.7-0.8-1.1-1.7-1.1-2.8 0-1 0.4-2 1.1-2.7q0 0 0 0l3.7-3.7c0.5-0.5 0.5-1.3 0-1.9-0.5-0.5-1.3-0.5-1.8 0l-3.7 3.7q0 0 0 0c-1.2 1.2-1.9 2.9-1.9 4.6 0 1.7 0.7 3.4 1.9 4.6 1.3 1.3 2.9 1.9 4.6 1.9 1.7 0 3.3-0.6 4.6-1.9q0 0 0 0l3.7-3.7c0.5-0.5 0.5-1.3 0-1.8-0.6-0.5-1.4-0.5-1.9 0z"/><path class="b" d="m24 6.5c0-1.7-0.7-3.4-1.9-4.6-2.5-2.5-6.7-2.5-9.2 0q0 0 0 0l-3.7 3.7c-0.5 0.5-0.5 1.3 0 1.8 0.3 0.3 0.6 0.4 1 0.4 0.3 0 0.6-0.1 0.9-0.4l3.7-3.7q0 0 0 0c1.5-1.5 3.9-1.5 5.5 0 0.7 0.8 1.1 1.7 1.1 2.8 0 1-0.4 2-1.1 2.7l-3.7 3.7c-0.5 0.5-0.5 1.3 0 1.9 0.2 0.2 0.6 0.3 0.9 0.3 0.3 0 0.7-0.1 0.9-0.3l3.7-3.7q0 0 0 0c1.2-1.2 1.9-2.9 1.9-4.6z"/><path class="c" d="m7.4 16.6c0.3 0.2 0.6 0.4 0.9 0.4 0.4 0 0.7-0.2 0.9-0.4l7.4-7.4c0.5-0.5 0.5-1.3 0-1.8-0.5-0.5-1.3-0.5-1.8 0l-7.4 7.4c-0.5 0.5-0.5 1.3 0 1.8z"/></svg>