<svg width="22" height="22" viewBox="0 0 22 22" fill="none" xmlns="http://www.w3.org/2000/svg">
<path fill-rule="evenodd" clip-rule="evenodd" d="M1.83333 11C1.83333 5.93741 5.93739 1.83335 11 1.83335C16.0626 1.83335 20.1667 5.93741 20.1667 11C20.1667 16.0626 16.0626 20.1667 11 20.1667C5.93739 20.1667 1.83333 16.0626 1.83333 11ZM11 0.166687C5.01692 0.166687 0.166668 5.01694 0.166668 11C0.166668 16.9831 5.01692 21.8334 11 21.8334C16.9831 21.8334 21.8333 16.9831 21.8333 11C21.8333 5.01694 16.9831 0.166687 11 0.166687ZM10.9301 14.6944L16.7196 8.69439L15.2804 7.30565L10.1148 12.6591L6.61369 9.93775L5.38631 11.5168L9.59684 14.7896L10.3062 15.341L10.9301 14.6944Z" fill="#E64B38"/>
</svg>
