<svg version="1.2" xmlns="http://www.w3.org/2000/svg" viewBox="0 0 24 24" width="24" height="24"><style>.a{fill:#111010}.b{fill:#0a0a0a}</style><path fill-rule="evenodd" class="a" d="m7.7 9.9q-1.6-1.7-1.7-4.1 0.1-2.4 1.7-4.1 1.7-1.7 4.1-1.7 2.4 0 4.1 1.7 1.7 1.7 1.7 4.1 0 2.4-1.7 4.1-1.7 1.7-4.1 1.7-2.4 0-4.1-1.7zm-0.2-4.1q-0.1 1.8 1.2 3.1 1.3 1.3 3.1 1.3 1.8 0 3.1-1.3 1.3-1.3 1.3-3.1 0-1.8-1.3-3.1-1.3-1.3-3.1-1.3-1.8 0-3.1 1.3-1.3 1.3-1.2 3.1z"/><path fill-rule="evenodd" class="b" d="m22 19.9q0 1.9-1.2 3-1.2 1.1-3 1.1h-11.6q-1.9 0-3-1.1-1.2-1.1-1.2-3 0-0.8 0-1.4 0.1-0.8 0.2-1.6 0.2-0.8 0.4-1.5 0.2-0.7 0.6-1.4 0.4-0.7 1-1.2 0.5-0.6 1.3-0.9 0.8-0.3 1.7-0.3c0.3 0 0.5 0.1 1 0.4q0.4 0.3 1 0.6 0.4 0.3 1.2 0.6 0.8 0.2 1.6 0.2 0.8 0 1.5-0.2 0.8-0.3 1.3-0.6 0.5-0.3 1-0.6c0.4-0.3 0.7-0.4 0.9-0.4q1 0 1.7 0.3 0.8 0.3 1.4 0.9 0.5 0.5 0.9 1.2 0.4 0.7 0.7 1.4 0.2 0.7 0.3 1.5 0.2 0.8 0.2 1.6 0.1 0.6 0.1 1.4zm-1.4 0q0-0.7-0.1-1.3 0-0.7-0.1-1.4-0.2-0.7-0.4-1.4-0.2-0.5-0.5-1.1-0.3-0.6-0.7-0.9-0.3-0.4-0.9-0.6-0.5-0.2-1.1-0.2 0 0-0.3 0.2-0.4 0.2-0.9 0.6-0.7 0.4-1.6 0.7-1 0.3-2 0.3-1 0-2-0.3-1-0.3-1.6-0.7-0.5-0.3-1-0.6-0.2-0.2-0.3-0.2-0.6 0-1.1 0.2-0.5 0.2-0.9 0.6-0.4 0.3-0.7 0.9-0.3 0.6-0.5 1.1-0.2 0.7-0.3 1.4-0.1 0.7-0.2 1.4 0 0.6 0 1.3 0 1.3 0.7 2 0.8 0.7 2.1 0.7h11.6q1.3 0 2-0.7 0.8-0.7 0.8-2z"/></svg>