<svg version="1.2" xmlns="http://www.w3.org/2000/svg" viewBox="0 0 50 45" width="50" height="45">
	<title>w-svg</title>
	<defs>
		<clipPath clipPathUnits="userSpaceOnUse" id="cp1">
			<path d="m0 0.26h50v44.24h-50z"/>
		</clipPath>
	</defs>
	<style>
		.s0 { fill: #fefcfc } 
		.s1 { fill: #fcf9f9 } 
		.s2 { fill: #fefefe } 
		.s3 { fill: #fefcfb } 
		.s4 { fill: #fefdfd } 
		.s5 { fill: #fcfbfb } 
	</style>
	<g id="Clip-Path" clip-path="url(#cp1)">
		<g id="Layer">
			<path id="Layer" fill-rule="evenodd" class="s0" d="m38.9 24.8c0 4.2-3.9 7.6-8.6 7.6-4.8 0-8.6-3.4-8.6-7.6 0-4.2 3.8-7.6 8.6-7.6 4.7 0 8.6 3.4 8.6 7.6zm-2 0c0-3.2-3-5.9-6.6-5.9-3.7 0-6.7 2.7-6.7 5.9 0 3.2 3 5.9 6.7 5.9 3.6 0 6.6-2.7 6.6-5.9z"/>
			<path id="Layer" class="s1" d="m30.3 20.9c-0.6 0-1 0.4-1 0.9 0 0.5 0.4 0.8 1 0.8 1.3 0 2.4 1 2.4 2.2 0 0.5 0.5 0.9 1 0.9 0.5 0 1-0.4 1-0.9 0-2.1-2-3.9-4.4-3.9z"/>
			<path id="Layer" class="s2" d="m6 9.2c-0.2-0.4-0.8-0.6-1.3-0.4-0.5 0.2-0.7 0.8-0.4 1.2l2.6 4.5c0.2 0.3 0.5 0.5 0.9 0.5 0.4-0.1 0.7-0.2 0.9-0.5l1.6-3 1.7 3c0.1 0.3 0.5 0.5 0.8 0.5h0.1c0.3-0.1 0.7-0.2 0.8-0.5l2.5-4.5c0.2-0.5 0-1-0.5-1.2-0.5-0.2-1.1 0-1.3 0.4l-1.6 3-1.7-3c-0.2-0.3-0.5-0.5-0.9-0.5-0.4 0-0.7 0.2-0.9 0.5l-1.6 3z"/>
			<path id="Layer" class="s3" d="m12.3 4.4c0.3 0 0.5-0.1 0.7-0.2 0.2-0.2 0.3-0.4 0.3-0.7 0-0.2-0.1-0.4-0.3-0.6-0.2-0.1-0.4-0.2-0.7-0.2-0.3 0-0.5 0.1-0.7 0.2-0.2 0.2-0.3 0.4-0.3 0.6 0 0.3 0.1 0.5 0.3 0.7 0.2 0.1 0.4 0.2 0.7 0.2z"/>
			<path id="Layer" fill-rule="evenodd" class="s4" d="m46.1 21h-3.9q0.8 1.8 0.8 3.8c0 3.5-1.9 6.7-4.8 8.7l7.5 6.7c0.6 0.4 1.4 0.4 1.9 0 0.6-0.5 0.6-1.3 0-1.7l-3-2.7c-0.4-0.4-0.4-0.9 0-1.2 0.4-0.4 1-0.4 1.4 0l3 2.7c1.3 1.1 1.3 3 0 4.1-0.6 0.6-1.5 0.9-2.3 0.9-0.9 0-1.7-0.3-2.4-0.9l-7.7-6.9c-1.9 1-4 1.5-6.3 1.5-7 0-12.7-5-12.7-11.2q0-2 0.7-3.8h-14.4c-2.1 0-3.9-1.5-3.9-3.5v-11.4c0-1.9 1.8-3.4 3.9-3.4h4c0.5 0 1 0.4 1 0.8 0 0.5-0.5 0.9-1 0.9h-4c-1.1 0-1.9 0.8-1.9 1.7v11.4c0 1 0.8 1.8 1.9 1.8h15.3c1.3-2.1 3.3-3.7 5.7-4.7q0 0-0.1-0.1l-1.7-3-1.6 3c-0.2 0.3-0.5 0.4-0.9 0.5-0.3 0-0.7-0.2-0.9-0.5l-2.6-4.5c-0.2-0.4 0-1 0.4-1.2 0.5-0.2 1.1 0 1.3 0.4l1.8 3 1.6-3c0.1-0.3 0.5-0.5 0.8-0.5 0.4 0 0.7 0.2 0.9 0.5l1.7 3 1.6-3c0.3-0.4 0.9-0.6 1.3-0.4 0.5 0.2 0.7 0.7 0.5 1.2l-2.2 4q1.7-0.4 3.5-0.4 0.9 0 1.8 0.1l-2.2-3.7c-0.2-0.4 0-1 0.5-1.2 0.4-0.2 1 0 1.3 0.4l1.7 3 1.6-3c0.2-0.3 0.5-0.5 0.9-0.5 0.3 0 0.7 0.2 0.8 0.5l1.8 3 1.6-3c0.2-0.4 0.8-0.6 1.3-0.4 0.4 0.2 0.7 0.7 0.4 1.2l-2.4 4.5c-0.2 0.3-0.5 0.4-0.9 0.5-0.4 0-0.7-0.2-0.9-0.5l-1.7-3-1.4 2.7c2.9 0.9 5.3 2.7 6.8 5.1q0.1 0 0.1 0h4.7c1.1 0 1.9-0.8 1.9-1.8v-11.4c0-0.9-0.8-1.7-1.9-1.7h-29.7c-0.5 0-1-0.4-1-0.9 0-0.4 0.5-0.8 1-0.8h29.7c2.1 0 3.9 1.5 3.9 3.4v11.4c0 1.9-1.8 3.5-3.9 3.5zm-5.1 3.8c0-5.2-4.8-9.5-10.7-9.5-5.9 0-10.8 4.3-10.8 9.5 0 5.2 4.9 9.5 10.8 9.5 5.9 0 10.7-4.3 10.7-9.5z"/>
			<path id="Layer" class="s5" d="m42.3 32.5c-0.2 0.2-0.3 0.4-0.3 0.6 0 0.2 0.1 0.5 0.3 0.6 0.2 0.2 0.4 0.3 0.7 0.3 0.2 0 0.5-0.1 0.7-0.3q0.2-0.2 0.3-0.6-0.1-0.3-0.3-0.6c-0.2-0.2-0.5-0.2-0.7-0.2-0.3 0-0.5 0-0.7 0.2z"/>
		</g>
	</g>
</svg>