<svg width="40" height="40" viewBox="0 0 40 40" fill="none" xmlns="http://www.w3.org/2000/svg">
<g clip-path="url(#clip0_3221_5979)">
<path d="M27.1106 40C25.3583 40 23.6684 39.0224 22.8544 37.3595L20.4984 32.9483L19.1619 35.4994C19.1277 35.5648 19.0887 35.6278 19.0456 35.6877C18.1685 36.9049 16.7253 37.3375 15.6569 37.3375C15.6483 37.3375 15.6397 37.3375 15.631 37.3374C14.4369 37.3295 13.248 36.8172 12.3691 35.9316C11.4564 35.0119 10.9538 33.791 10.9538 32.4936V12.2627C10.9538 10.4174 11.9935 8.78833 13.667 8.01114C15.3247 7.24129 17.2198 7.48598 18.6256 8.64779L28.9184 16.3128C29.6105 16.8282 29.7537 17.8071 29.2384 18.4992C28.7229 19.1913 27.7441 19.3345 27.052 18.8191L16.7245 11.1283C16.6989 11.1092 16.6739 11.0894 16.6496 11.0688C15.9427 10.4719 15.1956 10.7469 14.9833 10.8455C14.7711 10.944 14.0789 11.3373 14.0789 12.2627V32.4937C14.0789 33.5005 14.9077 34.2076 15.6517 34.2125C15.6541 34.2125 15.6566 34.2125 15.6589 34.2125C15.963 34.2125 16.2973 34.0865 16.4638 33.9158L19.1012 28.8815C19.3698 28.3687 19.9001 28.0464 20.479 28.0441C20.4811 28.0441 20.4833 28.0441 20.4853 28.0441C21.0619 28.0441 21.5918 28.3616 21.8636 28.8705L25.6254 35.9139C25.636 35.9338 25.6462 35.9538 25.6559 35.9741C26.0309 36.7556 26.9761 37.0956 27.7626 36.7314C28.1543 36.5503 28.4497 36.2269 28.5948 35.8206C28.7355 35.4268 28.7175 35.0036 28.5447 34.6245L24.7481 27.8685C24.4763 27.3847 24.4814 26.793 24.7617 26.314C25.042 25.835 25.5553 25.5406 26.1103 25.5406H31.4673C32.3738 25.4943 32.7358 24.7804 32.8256 24.561C32.9178 24.3361 33.1682 23.5486 32.5213 22.8625C31.9293 22.2346 31.9584 21.2457 32.5862 20.6537C33.2141 20.0616 34.203 20.0909 34.795 20.7187C36.077 22.0785 36.4306 24.0046 35.7175 25.7455C35.0085 27.4767 33.4151 28.5952 31.5593 28.6645C31.5399 28.6653 31.5205 28.6656 31.501 28.6656H28.7808L31.2961 33.1417C31.3115 33.1692 31.3262 33.1971 31.3399 33.2254C31.897 34.3744 31.9673 35.6694 31.5377 36.8718C31.1083 38.0743 30.2336 39.0318 29.0747 39.5678C28.4401 39.861 27.7708 39.9999 27.1106 40ZM12.7205 6.13612C13.4773 5.72119 13.7542 4.77142 13.3393 4.01477L12.0111 1.59287C11.5962 0.836225 10.6466 0.559269 9.88987 0.974195C9.13315 1.38912 8.85619 2.3389 9.27112 3.09554L10.5993 5.51744C10.8835 6.03573 11.4185 6.32893 11.9707 6.32893C12.2246 6.32893 12.4822 6.2669 12.7205 6.13612ZM9.41635 9.68936C9.76222 8.89873 9.40167 7.97739 8.61111 7.63153L6.11109 6.53776C5.32045 6.19182 4.3992 6.55245 4.05325 7.34301C3.70739 8.13364 4.06794 9.05498 4.8585 9.40084L7.35852 10.4946C7.56235 10.5838 7.77485 10.626 7.984 10.626C8.58596 10.6259 9.15963 10.2761 9.41635 9.68936ZM19.1548 4.63525L20.0142 2.0571C20.2871 1.23842 19.8447 0.353485 19.026 0.0806703C18.2076 -0.192379 17.3224 0.250203 17.0496 1.06888L16.1902 3.64703C15.9173 4.46571 16.3597 5.35064 17.1784 5.62346C17.3423 5.67815 17.5089 5.70408 17.6727 5.70408C18.3268 5.70408 18.9366 5.28994 19.1548 4.63525ZM23.29 8.59989L25.3994 7.03738C26.0928 6.5237 26.2386 5.54518 25.725 4.85173C25.2113 4.15829 24.2327 4.01258 23.5393 4.52618L21.4299 6.0887C20.7365 6.60237 20.5908 7.5809 21.1044 8.27434C21.4109 8.68818 21.883 8.90693 22.3612 8.90693C22.6844 8.90693 23.0104 8.80701 23.29 8.59989ZM6.2214 17.3889L8.56517 16.4514C9.36643 16.1309 9.75612 15.2215 9.43565 14.4203C9.1151 13.619 8.20564 13.2293 7.40462 13.5499L5.06084 14.4874C4.25958 14.8078 3.86989 15.7172 4.19037 16.5184C4.43474 17.1294 5.02147 17.5011 5.64155 17.5011C5.83476 17.5011 6.03109 17.465 6.2214 17.3889Z" fill="#FF4C44"/>
</g>
<defs>
<clipPath id="clip0_3221_5979">
<rect width="40" height="40" fill="white"/>
</clipPath>
</defs>
</svg>
